<?xml version="1.0" encoding="utf-8"?>
<?xml-stylesheet type="text/xsl" href="rss1.xsl"?>
<rss version="2.0" xmlns:atom="http://www.w3.org/2005/Atom" xmlns:content="http://purl.org/rss/1.0/modules/content/" xmlns:dc="http://purl.org/dc/elements/1.1/" xmlns:media="http://search.yahoo.com/mrss/">
<channel>
 <title>Getty</title>
 <link>http://www.gettyimg.com/</link>
 <atom:link href="http://www.gettyimg.com/" rel="self" type="application/rss+xml" />

 
                <item>
                <title><![CDATA[【Cinema Center】MOVIE - Trancers.1984.1080p.PCOK.WEB-DL.AAC2.0.x264-Samuel]]></title>
                <link><![CDATA[https://sharemania.us/threads/trancers-1984-1080p-pcok-web-dl-aac2-0-x264-samuel.225452/]]></link>
                <description><![CDATA[<article>
<blockquote class="messageText SelectQuoteContainer ugc baseHtml">
<div style="text-align: center"><b><span style="font-size: 26px">Trancers</span></b><br>
<img src="https://i.imgur.com/PEOl3fn.jpg" class="bbCodeImage LbImage" alt="[​IMG]" data-url="https://i.imgur.com/PEOl3fn.jpg" style=""><br>
<b><a href="https://i.imgur.com/7xPuCAB.jpg" target="_blank" class="externalLink" rel="nofollow">Alternate Artwork</a></b> | <b><a href="https://i.imgur.com/3HxYnDa.jpg" target="_blank" class="externalLink" rel="nofollow">Poster</a></b> | <b><a href="https://i.imgur.com/anqwgpb.jpg" target="_blank" class="externalLink" rel="nofollow">Key Art</a></b><br>
<br>
Sci-Fi • 1984 • PG13 • 1h 16m<br>
<img src="https://i.imgur.com/tAMArCY.png" class="bbCodeImage LbImage" alt="[​IMG]" data-url="https://i.imgur.com/tAMArCY.png" style=""> Tim Thomerson, Helen Hunt, Michael Stefani<br>
<br>
<div class="bbCodeBlock bbCodeQuote">
<aside>
<blockquote class="quoteContainer"><div class="quote"><b><span style="font-size: 15px"><span style="font-family: 'Arial'">Description</span></span></b><br>
A trooper leaves 2247 Angel City for 1985 Los Angeles to stop a zombie mystic out to change history.</div><div class="quoteExpand">Click to expand...</div></blockquote>
</aside>
</div>
<div class="bbCodeBlock bbCodeQuote">
<aside>
<blockquote class="quoteContainer"><div class="quote"><b><span style="font-size: 15px"><span style="font-family: 'Arial'">Source</span></span></b><br>
<img src="https://i.imgur.com/3SYP1bO.png" class="bbCodeImage LbImage" alt="[​IMG]" data-url="https://i.imgur.com/3SYP1bO.png" style=""></div><div class="quoteExpand">Click to expand...</div></blockquote>
</aside>
</div>
<div class="bbCodeBlock bbCodeQuote">
<aside>
<blockquote class="quoteContainer"><div class="quote"><b><span style="font-size: 15px"><span style="font-family: 'Arial'">Trailers</span></span></b><br>
<div data-s9e-mediaembed="googledrive" style="display:inline-block;width:100%;max-width:640px"><div style="overflow:hidden;position:relative;padding-bottom:75%"><iframe allowfullscreen="" scrolling="no" src="//drive.google.com/file/d/1i2HqBTzws5ir7OULFn100aCfuaKNYnil/preview" style="border:0;height:100%;left:0;position:absolute;width:100%"></iframe></div></div></div><div class="quoteExpand quoteCut">Click to expand...</div></blockquote>
</aside>
</div>
<div class="bbCodeBlock bbCodeQuote">
<aside>
<blockquote class="quoteContainer"><div class="quote"><b><span style="font-size: 15px">Release Name</span></b><br>
Trancers.1984.1080p.PCOK.WEB-DL.AAC2.0.x264-Samuel</div><div class="quoteExpand">Click to expand...</div></blockquote>
</aside>
</div>
<div class="ToggleTriggerAnchor bbCodeSpoilerContainer">
<button type="button" class="button bbCodeSpoilerButton ToggleTrigger Tooltip JsOnly" data-target="> .SpoilerTarget"><span>Spoiler: <span class="SpoilerTitle">Media Information</span></span></button>
<div class="SpoilerTarget bbCodeSpoilerText">General<br>
Complete name : Trancers.1984.1080p.PCOK.WEB-DL.AAC2.0.x264-Samuel.mkv<br>
Format : Matroska<br>
Format version : Version 4<br>
File size : 4.09 GiB<br>
Duration : 1 h 16 min<br>
Overall bit rate : 7 609 kb/s<br>
Frame rate : 23.976 FPS<br>
Encoded date : 2023-07-08 19:50:36 UTC<br>
Writing application : mkvmerge v72.0.0 ('Minuano (Six-eight)') 64-bit<br>
Writing library : libebml v1.4.4 + libmatroska v1.7.1<br>
<br>
Video<br>
ID : 1<br>
Format : AVC<br>
Format/Info : Advanced Video Codec<br>
Format profile  : High@L4<br>
Format settings : CABAC / 4 Ref Frames<br>
Format settings, CABAC : Yes<br>
Format settings, Reference frames : 4 frames<br>
Codec ID : V_MPEG4/ISO/AVC<br>
Duration : 1 h 16 min<br>
Bit rate : 7 814 kb/s<br>
Width : 1 920 pixels<br>
Height : 1 080 pixels<br>
Display aspect ratio : 16:9<br>
Frame rate mode : Constant<br>
Frame rate : 23.976 (24000/1001) FPS<br>
Color space : YUV<br>
Chroma subsampling : 4:2:0<br>
Bit depth : 8 bits<br>
Scan type : Progressive<br>
Bits/(Pixel*Frame) : 0.157<br>
Stream size : 4.04 GiB (99%)<br>
Writing library : x264 core 164 r3095 baee400<br>
Encoding settings : cabac=1 / ref=4 / deblock=1:0:0 / analyse=0x3:0x113 / me=umh / subme=7 / psy=1 / psy_rd=0.00:0.00 / mixed_ref=1 / me_range=16 / chroma_me=1 / trellis=1 / 8x8dct=1 / cqm=0 / deadzone=21,11 / fast_pskip=0 / chroma_qp_offset=0 / threads=34 / lookahead_threads=5 / sliced_threads=0 / nr=0 / decimate=1 / interlaced=0 / bluray_compat=0 / constrained_intra=0 / bframes=16 / b_pyramid=2 / b_adapt=1 / b_bias=0 / direct=1 / weightb=1 / open_gop=0 / weightp=2 / keyint=48 / keyint_min=4 / scenecut=0 / intra_refresh=0 / rc_lookahead=40 / rc=2pass / mbtree=1 / bitrate=7814 / ratetol=1.0 / qcomp=0.60 / qpmin=10 / qpmax=51 / qpstep=4 / cplxblur=20.0 / qblur=0.5 / vbv_maxrate=7814 / vbv_bufsize=7814 / nal_hrd=none / filler=0 / ip_ratio=1.41 / aq=1:1.00<br>
Default : Yes<br>
Forced : No<br>
Color range : Limited<br>
Color primaries : BT.709<br>
Transfer characteristics : BT.709<br>
Matrix coefficients : BT.709<br>
<br>
Audio<br>
ID : 2<br>
Format : AAC LC<br>
Format/Info : Advanced Audio Codec Low Complexity<br>
Codec ID : A_AAC-2<br>
Duration : 1 h 16 min<br>
Bit rate : 96.0 kb/s<br>
Channel(s) : 2 channels<br>
Channel layout : L R<br>
Sampling rate : 48.0 kHz<br>
Frame rate : 46.875 FPS (1024 SPF)<br>
Compression mode : Lossy<br>
Stream size : 52.9 MiB (1%)<br>
Language : English<br>
Default : Yes<br>
Forced : No<br>
<br>
Text<br>
ID : 3<br>
Format : UTF-8<br>
Codec ID : S_TEXT/UTF8<br>
Codec ID/Info : UTF-8 Plain Text<br>
Duration : 1 h 13 min<br>
Bit rate : 47 b/s<br>
Frame rate : 0.238 FPS<br>
Count of elements : 1046<br>
Stream size : 25.2 KiB (0%)<br>
Language : English<br>
Default : No<br>
Forced : No<br>
<br>
Menu<br>
01:13:47.006 : en:Credits</div>
</div><br>
<b>Screenshots</b><br>
<img src="https://i.imgur.com/riInhAP.png" class="bbCodeImage LbImage" alt="[​IMG]" data-url="https://i.imgur.com/riInhAP.png" style=""><br>
<br>
<b>Download</b><br>
<div class="bbCodeBlock bbCodeVfcHH HiddenContent">
<div class="attribution type">Hidden Content:</div>
<blockquote>You must reply before you can see the hidden data contained here.</blockquote>
</div></div>
<div class="messageTextEndMarker">&nbsp;</div>
</blockquote>
</article>]]></description>
                <author><![CDATA[Samuel]]></author>
                </item>

                
                <item>
                <title><![CDATA[【Requests】[REQ AUD] - Pretty Boy, Dirty Boy - Maluma Hi-Res 24Bit-96kHz]]></title>
                <link><![CDATA[https://sharemania.us/threads/pretty-boy-dirty-boy-maluma-hi-res-24bit-96khz.225453/]]></link>
                <description><![CDATA[<article>
<blockquote class="messageText SelectQuoteContainer ugc baseHtml">
Does anyone share the album? I would appreciate
<div class="messageTextEndMarker">&nbsp;</div>
</blockquote>
</article>]]></description>
                <author><![CDATA[Sacks]]></author>
                </item>

                </channel></rss>